<svg width="241" height="48" viewBox="0 0 241 48" fill="none" xmlns="http://www.w3.org/2000/svg">
<path d="M80.1039 37.4019H74.2893L62.3402 22.5734V37.4019H57.9182V8.0994H62.3402V22.5021L73.6833 8.0994H79.0688L67.5132 22.2881L80.1039 37.4019Z" fill="#2057A6"/>
<path d="M82.5656 37.4019V8.0994H100.434V12.1893H86.9874V21.7197H98.7935V25.7741H86.9874V37.4019H82.5656Z" fill="#2057A6"/>
<path d="M104.359 37.4019V8.0994H108.781V37.4019H104.359Z" fill="#2057A6"/>
<path d="M114.412 37.3994V7.49274L134.814 28.0829C134.791 26.5894 134.766 25.1486 134.742 23.7622C134.719 22.3758 134.707 20.8887 134.707 19.2989V8.0968H139.023V38.1461L118.658 17.4848C118.681 18.978 118.706 20.442 118.729 21.8767C118.752 23.3112 118.765 24.7752 118.765 26.2686V37.3994H114.412Z" fill="#2057A6"/>
<path d="M150.829 37.4019V12.1893H142.341V8.0994H163.813V12.1893H155.289V37.4019H150.829Z" fill="#2057A6"/>
<path d="M167.135 37.4019V8.0994H185.039V12.1536H171.629V20.474H182.792V24.4569H171.629V33.3477H185.574V37.4019H167.135Z" fill="#2057A6"/>
<path d="M203.01 37.9664C200.822 37.9664 198.772 37.5763 196.857 36.7918C194.943 36.0096 193.273 34.9378 191.847 33.5745C190.419 32.2113 189.297 30.6047 188.476 28.7568C187.656 26.9069 187.245 24.904 187.245 22.7478C187.245 20.5917 187.656 18.5865 188.476 16.7388C189.297 14.8889 190.419 13.2844 191.847 11.9212C193.273 10.5578 194.943 9.49019 196.857 8.72053C198.772 7.95068 200.833 7.56485 203.047 7.56485C205.14 7.56485 206.993 7.85015 208.611 8.41855C210.228 8.98696 211.547 9.61609 212.57 10.3041V15.3546C212 14.8091 211.346 14.3059 210.607 13.8423C209.87 13.3809 209.086 12.9825 208.252 12.6511C207.42 12.3196 206.559 12.0638 205.667 11.8855C204.776 11.7072 203.89 11.619 203.01 11.619C201.392 11.619 199.901 11.9043 198.534 12.4728C197.166 13.0412 195.988 13.8297 195.002 14.8386C194.014 15.8475 193.242 17.0261 192.683 18.377C192.124 19.7276 191.847 21.1853 191.847 22.75C191.847 24.3145 192.126 25.7724 192.683 27.123C193.242 28.4737 194.014 29.6545 195.002 30.6612C195.988 31.6701 197.164 32.4566 198.534 33.0272C199.901 33.5954 201.392 33.8808 203.01 33.8808C204.817 33.8808 206.572 33.5367 208.273 32.8489C209.972 32.1609 211.404 31.2716 212.57 30.1809V35.2314C211.498 35.9194 210.163 36.5465 208.559 37.117C206.952 37.6833 205.104 37.9664 203.01 37.9664Z" fill="#2057A6"/>
<path d="M217.494 37.4019V8.0994H221.915V20.4383H236.361V8.0994H240.785V37.4019H236.361V24.4925H221.915V37.4019H217.494Z" fill="#2057A6"/>
<path d="M45.8605 45.3913L54.1639 44.7242L54.6583 45.2717C54.8728 45.5087 54.6919 45.8862 54.3721 45.8673L45.8605 45.3913Z" fill="url(#paint0_linear_636_3579)"/>
<path d="M21.9114 1.25009L27.6291 6.91303L19.8055 34.546L12.1166 36.6897L21.9114 1.25009Z" fill="url(#paint1_linear_636_3579)"/>
<path d="M1.20532 47.3237L2.98089 39.2509L31.5301 31.2661L37.7255 37.3716L1.20532 47.3237Z" fill="url(#paint2_linear_636_3579)"/>
<path d="M25.396 14.9353L54.1682 44.7287L45.8627 45.3936L23.0839 22.9493L25.396 14.9353Z" fill="url(#paint3_linear_636_3579)"/>
<path opacity="0.25" d="M2.97156 39.2509L31.5208 31.2661L37.7161 37.3716L2.97156 39.2509Z" fill="url(#paint4_linear_636_3579)"/>
<path opacity="0.25" d="M21.9114 1.25009L19.8055 34.546L12.1166 36.6897L21.9114 1.25009Z" fill="url(#paint5_linear_636_3579)"/>
<path opacity="0.25" d="M25.396 14.9353L45.8627 45.3936L23.0839 22.9493L25.396 14.9353Z" fill="url(#paint6_linear_636_3579)"/>
<path d="M27.6418 6.91642L22.7444 0.326447C22.5615 0.0810512 22.1765 0.160739 22.1071 0.45857L21.924 1.25349L27.6418 6.91642Z" fill="url(#paint7_linear_636_3579)"/>
<path d="M2.9727 39.2512L1.19501 47.322L0.473453 47.5611C0.187355 47.6555 -0.0819179 47.3785 0.0232657 47.0954L2.9727 39.2512Z" fill="url(#paint8_linear_636_3579)"/>
<defs>
<linearGradient id="paint0_linear_636_3579" x1="45.8608" y1="45.2976" x2="54.7519" y2="45.2976" gradientUnits="userSpaceOnUse">
<stop stop-color="#0FD4D8"/>
<stop offset="0.2878" stop-color="#09B0B9"/>
<stop offset="0.566" stop-color="#0495A1"/>
<stop offset="0.8119" stop-color="#018593"/>
<stop offset="1" stop-color="#007F8E"/>
</linearGradient>
<linearGradient id="paint1_linear_636_3579" x1="24.913" y1="4.86945" x2="15.5599" y2="35.0977" gradientUnits="userSpaceOnUse">
<stop stop-color="#139FCE" stop-opacity="0.9"/>
<stop offset="0.3219" stop-color="#139CCB" stop-opacity="0.9322"/>
<stop offset="0.5804" stop-color="#1293C1" stop-opacity="0.958"/>
<stop offset="0.8161" stop-color="#1083B0" stop-opacity="0.9816"/>
<stop offset="1" stop-color="#0E719D"/>
</linearGradient>
<linearGradient id="paint2_linear_636_3579" x1="0.260453" y1="44.0196" x2="35.9139" y2="33.8296" gradientUnits="userSpaceOnUse">
<stop stop-color="#337FC9"/>
<stop offset="0.3501" stop-color="#317CC6"/>
<stop offset="0.6313" stop-color="#2D72BD"/>
<stop offset="0.8877" stop-color="#2561AF"/>
<stop offset="1" stop-color="#2057A6"/>
</linearGradient>
<linearGradient id="paint3_linear_636_3579" x1="51.2358" y1="45.8561" x2="25.513" y2="20.0559" gradientUnits="userSpaceOnUse">
<stop stop-color="#0FD4D8"/>
<stop offset="0.2561" stop-color="#0ED1D5"/>
<stop offset="0.4617" stop-color="#0DC7CC"/>
<stop offset="0.6499" stop-color="#0AB6BE"/>
<stop offset="0.8265" stop-color="#069EA9"/>
<stop offset="0.9955" stop-color="#00808F"/>
<stop offset="1" stop-color="#007F8E"/>
</linearGradient>
<linearGradient id="paint4_linear_636_3579" x1="1.75017" y1="43.4265" x2="34.6699" y2="34.2497" gradientUnits="userSpaceOnUse">
<stop stop-color="#337FC9"/>
<stop offset="0.3003" stop-color="#3079C4"/>
<stop offset="0.6923" stop-color="#2869B6"/>
<stop offset="1" stop-color="#2057A6"/>
</linearGradient>
<linearGradient id="paint5_linear_636_3579" x1="24.3551" y1="3.0298" x2="15.9683" y2="35.7844" gradientUnits="userSpaceOnUse">
<stop stop-color="#139FCE" stop-opacity="0.9"/>
<stop offset="0.2648" stop-color="#129AC8" stop-opacity="0.9265"/>
<stop offset="0.6111" stop-color="#118AB8" stop-opacity="0.9611"/>
<stop offset="1" stop-color="#0E719D"/>
</linearGradient>
<linearGradient id="paint6_linear_636_3579" x1="51.2118" y1="44.9647" x2="24.7253" y2="19.6551" gradientUnits="userSpaceOnUse">
<stop stop-color="#0FD4D8"/>
<stop offset="0.1881" stop-color="#0ECED3"/>
<stop offset="0.434" stop-color="#0BBEC5"/>
<stop offset="0.7122" stop-color="#06A3AD"/>
<stop offset="1" stop-color="#007F8E"/>
</linearGradient>
<linearGradient id="paint7_linear_636_3579" x1="22.3061" y1="0.757492" x2="27.6711" y2="6.90309" gradientUnits="userSpaceOnUse">
<stop stop-color="#0E719D"/>
<stop offset="0.3889" stop-color="#118AB8" stop-opacity="0.9611"/>
<stop offset="0.7352" stop-color="#129AC8" stop-opacity="0.9265"/>
<stop offset="1" stop-color="#139FCE" stop-opacity="0.9"/>
</linearGradient>
<linearGradient id="paint8_linear_636_3579" x1="0.00163098" y1="43.4169" x2="2.97325" y2="43.4169" gradientUnits="userSpaceOnUse">
<stop stop-color="#337FC9"/>
<stop offset="0.3077" stop-color="#2B6DB9"/>
<stop offset="0.6997" stop-color="#235DAB"/>
<stop offset="1" stop-color="#2057A6"/>
</linearGradient>
</defs>
</svg>
